<svg id="visual" viewBox="0 0 1900 600" width="2000" height="600" xmlns="http://www.w3.org/2000/svg" xmlns:xlink="http://www.w3.org/1999/xlink" version="1.1"><rect x="0" y="0" width="900" height="600" fill="#001220"></rect><path d="M0 266L30 269.3C60 272.7 120 279.3 180 280.2C240 281 300 276 360 276C420 276 480 281 540 283.2C600 285.3 660 284.7 720 284C780 283.3 840 282.7 870 282.3L900 282L900 601L870 601C840 601 780 601 720 601C660 601 600 601 540 601C480 601 420 601 360 601C300 601 240 601 180 601C120 601 60 601 30 601L0 601Z" fill="#fa7268"></path><path d="M0 475L30 468.5C60 462 120 449 180 436C240 423 300 410 360 398.8C420 387.7 480 378.3 540 383.7C600 389 660 409 720 410.7C780 412.3 840 395.7 870 387.3L900 379L900 601L870 601C840 601 780 601 720 601C660 601 600 601 540 601C480 601 420 601 360 601C300 601 240 601 180 601C120 601 60 601 30 601L0 601Z" fill="#e34c67"></path><path d="M0 469L30 471.7C60 474.3 120 479.7 180 491C240 502.3 300 519.7 360 526.8C420 534 480 531 540 518.5C600 506 660 484 720 482.3C780 480.7 840 499.3 870 508.7L900 518L900 601L870 601C840 601 780 601 720 601C660 601 600 601 540 601C480 601 420 601 360 601C300 601 240 601 180 601C120 601 60 601 30 601L0 601Z" fill="#c62368"></path></svg>