<svg viewBox="0 0 900 450" xmlns="http://www.w3.org/2000/svg" xmlns:xlink="http://www.w3.org/1999/xlink"
    version="1.1">
    <g stroke-width="1" stroke-linejoin="bevel">
        <path d="M389 183L419 124L280 0Z" fill="#00ffaa" stroke="#00ffaa"></path>
        <path d="M419 124L403 0L280 0Z" fill="#00b953" stroke="#00b953"></path>
        <path d="M280 0L166 203L389 183Z" fill="#6dff41" stroke="#6dff41"></path>
        <path d="M280 0L134 0L166 203Z" fill="#00b953" stroke="#00b953"></path>
        <path d="M166 203L200 329L389 183Z" fill="#00ffaa" stroke="#00ffaa"></path>
        <path d="M419 124L562 0L403 0Z" fill="#00ffaaab" stroke="#00ffaaab"></path>
        <path d="M652 213L562 0L419 124Z" fill="#00ffaaab" stroke="#00ffaaab"></path>
        <path d="M200 329L362 381L389 183Z" fill="#00b953" stroke="#00b953"></path>
        <path d="M389 183L579 292L419 124Z" fill="#00ffaaab" stroke="#00ffaaab"></path>
        <path d="M134 0L0 187L166 203Z" fill="#6dff41" stroke="#6dff41"></path>
        <path d="M166 203L77 373L200 329Z" fill="#00ffaaab" stroke="#00ffaaab"></path>
        <path d="M362 381L579 292L389 183Z" fill="#00b953" stroke="#00b953"></path>
        <path d="M134 0L0 0L0 187Z" fill="#00ffaa" stroke="#00ffaa"></path>
        <path d="M200 329L288 450L362 381Z" fill="#00ffaaab" stroke="#00ffaaab"></path>
        <path d="M362 381L469 450L579 292Z" fill="#6dff41" stroke="#6dff41"></path>
        <path d="M209 450L288 450L200 329Z" fill="#00ffaaab" stroke="#00ffaaab"></path>
        <path d="M0 187L77 373L166 203Z" fill="#6dff41" stroke="#6dff41"></path>
        <path d="M579 292L652 213L419 124Z" fill="#6dff41" stroke="#6dff41"></path>
        <path d="M77 373L209 450L200 329Z" fill="#00b953" stroke="#00b953"></path>
        <path d="M288 450L469 450L362 381Z" fill="#00b953" stroke="#00b953"></path>
        <path d="M579 292L744 249L652 213Z" fill="#00b953" stroke="#00b953"></path>
        <path d="M0 187L0 394L77 373Z" fill="#00ffaa" stroke="#00ffaa"></path>
        <path d="M77 373L0 450L209 450Z" fill="#00ffaaab" stroke="#00ffaaab"></path>
        <path d="M671 450L744 249L579 292Z" fill="#6dff41" stroke="#6dff41"></path>
        <path d="M652 213L833 0L562 0Z" fill="#6dff41" stroke="#6dff41"></path>
        <path d="M0 394L0 450L77 373Z" fill="#00ffaa" stroke="#00ffaa"></path>
        <path d="M469 450L671 450L579 292Z" fill="#00ffaa" stroke="#00ffaa"></path>
        <path d="M900 450L829 229L744 249Z" fill="#00ffaa" stroke="#00ffaa"></path>
        <path d="M744 249L833 0L652 213Z" fill="#00ffaa" stroke="#00ffaa"></path>
        <path d="M829 229L833 0L744 249Z" fill="#6dff41" stroke="#6dff41"></path>
        <path d="M671 450L726 450L744 249Z" fill="#00ffaaab" stroke="#00ffaaab"></path>
        <path d="M900 201L900 130L829 229Z" fill="#00ffaa" stroke="#00ffaa"></path>
        <path d="M829 229L900 130L833 0Z" fill="#00ffaa" stroke="#00ffaa"></path>
        <path d="M900 450L900 201L829 229Z" fill="#00ffaa" stroke="#00ffaa"></path>
        <path d="M900 130L900 0L833 0Z" fill="#00ffaa" stroke="#00ffaa"></path>
        <path d="M726 450L900 450L744 249Z" fill="#00b953" stroke="#00b953"></path>
    </g>
</svg>