<svg className="bigFooterLogo" viewBox="0 0 707 430" fill="none">
    <path
        d="M125.619 222.644C121.822 222.459 116.735 220.276 113.025 218.623C107.667 216.243 101.008 213.27 90.3299 213.27C70.8544 213.27 51.121 223.803 51.121 243.955C51.121 253.168 54.9178 262.294 63.3469 273.246C41.5 283.187 22 296.062 22 320.568C22 353.608 51.3913 369 71.2599 369C94.7533 369 109.621 355.939 123.837 343.002C126.4 348.761 127.763 354.985 127.843 361.292V369H155.662V361.292C155.662 349.477 152.086 338.019 144.738 326.315C142.87 323.294 140.683 320.075 138.14 316.745C135.547 313.35 132.779 310.093 129.846 306.989C122.965 299.466 115.494 292.473 108.257 285.69C91.8781 270.335 77.7353 257.077 77.7353 244.769C77.7353 237.369 84.2599 233.928 90.3299 233.928C96.3998 233.928 101.573 235.988 107.127 238.159C112.042 240.095 117.116 242.08 122.695 242.5M121.257 242.352L117.116 261.776L178 242.685L129.084 200L125.631 222.619M74.2826 342.472C64.9319 342.472 51.0227 336.305 51.0227 319.335C51.0227 307.002 62.0813 299.367 80.1682 291.228C82.896 293.941 85.7467 296.691 88.4991 299.355C96.3384 306.928 104.473 314.747 111.083 322.887C99.361 333.518 89.052 342.496 74.2703 342.496L74.2826 342.472Z"
        fill="url(#paint0_linear_5_13)" />
    <path
        d="M334.811 293.502L334.71 293.397C334.502 293.179 334.306 292.949 334.121 292.708C333.861 292.368 333.583 292.043 333.289 291.735C329.133 286.975 324.072 283.173 318.428 280.57C312.784 277.967 306.682 276.622 300.511 276.619H253.133C250.711 276.588 248.397 275.572 246.684 273.786C244.97 272.001 243.992 269.588 243.959 267.062V266.283C243.992 263.755 244.969 261.34 246.683 259.552C248.396 257.765 250.71 256.745 253.133 256.71H335.055V226H253.133C242.971 226.036 233.238 230.277 226.07 237.793C218.902 245.308 214.885 255.485 214.9 266.088V266.867C214.838 274.938 217.165 282.832 221.562 289.472C222.97 291.798 224.622 293.953 226.486 295.899C233.618 303.138 243.183 307.176 253.133 307.149H300.511C304.536 307.149 308.396 308.818 311.242 311.787C314.088 314.757 315.687 318.784 315.687 322.984C315.687 327.183 314.088 331.211 311.242 334.181C308.396 337.15 304.536 338.818 300.511 338.818H194.771L187.363 338.968C187.363 338.968 179.5 338.818 165.325 338.968C165.325 348.468 165.325 359.834 165.325 369.334C173 369.334 181.489 369.578 190.134 369.334H300.569C308.98 369.333 317.219 366.841 324.327 362.147C331.434 357.454 337.119 350.752 340.721 342.821C344.322 334.889 345.692 326.054 344.672 317.342C343.651 308.63 340.281 300.4 334.954 293.607L334.811 293.502Z"
        fill="url(#paint1_linear_5_13)" />
    <path
        d="M210.858 186.188C216.962 189.38 223.7 191.028 230.529 191H300V160.559L228.48 160.349C225.131 159.836 222.03 158.211 219.636 155.716C217.241 153.221 215.681 149.988 215.184 146.496V48H186V144.344C185.972 151.446 187.548 158.455 190.599 164.803C194.885 174.082 202.014 181.607 210.858 186.188Z"
        fill="url(#paint2_linear_5_13)" />
    <path
        d="M100.493 191H169V160.556H100.493C90.0621 160.556 80.0587 156.23 72.6831 148.531C65.3075 140.831 61.1639 130.389 61.1639 119.5C61.1639 108.611 65.3075 98.1687 72.6831 90.4692C80.0587 82.7698 90.0621 78.4443 100.493 78.4443H169V48H100.493C82.3274 48 64.906 55.533 52.0611 68.9419C39.2162 82.3507 32 100.537 32 119.5C32 138.463 39.2162 156.649 52.0611 170.058C64.906 183.467 82.3274 191 100.493 191Z"
        fill="url(#paint3_linear_5_13)" />
    <path d="M349 48H318V191H349V48Z" fill="url(#paint4_linear_5_13)" />
    <path d="M552 226H523V371H552V226Z" fill="url(#paint5_linear_5_13)" />
    <path
        d="M688.718 238.001L688.516 237.804C684.951 234.049 680.712 231.071 676.043 229.045C671.375 227.019 666.37 225.984 661.318 226H575V371H604.466V307.084H667.846V306.675C671.193 306.172 674.449 305.151 677.51 303.645C683.164 300.892 688.104 296.752 691.911 291.574C695.719 286.396 698.283 280.333 699.387 273.897C700.49 267.461 700.101 260.84 698.251 254.595C696.402 248.35 693.147 242.664 688.761 238.017L688.718 238.001ZM665.275 275.278L663.528 276.066V276.157C662.866 276.327 662.187 276.414 661.505 276.414H604.466V256.867H661.549C662.745 256.839 663.934 257.063 665.045 257.526C666.157 257.99 667.168 258.683 668.02 259.564C669.765 261.43 670.749 263.936 670.764 266.55C670.761 268.408 670.24 270.225 669.265 271.776C668.289 273.327 666.903 274.544 665.275 275.278Z"
        fill="url(#paint6_linear_5_13)" />
    <path d="M470.407 276.414H390.593V226H361V371H390.593V307.281H470.407V371H500V226H470.407V276.414Z"
        fill="url(#paint7_linear_5_13)" />
    <path
        d="M363 119.5C363.023 138.458 370.354 156.633 383.385 170.037C396.415 183.441 414.081 190.98 432.507 191H502V160.556H432.507C421.924 160.556 411.775 156.23 404.292 148.531C396.808 140.831 392.604 130.389 392.604 119.5C392.604 108.611 396.808 98.1687 404.292 90.4692C411.775 82.7698 421.924 78.4443 432.507 78.4443H502V48H432.507C414.081 48.0198 396.415 55.5587 383.385 68.9628C370.354 82.3669 363.023 100.542 363 119.5Z"
        fill="url(#paint8_linear_5_13)" />
    <path
        d="M552.232 155.474L582.197 127.092L626.655 191H662.69L603.938 106.393L665 48H621.747L584.263 83.8247L566.798 100.459L552.232 114.299V48H523V191H552.232V155.474Z"
        fill="url(#paint9_linear_5_13)" />
    <defs>
        <linearGradient id="paint0_linear_5_13" x1="-0.50061" y1="283.147" x2="188.712" y2="283.147"
            gradientUnits="userSpaceOnUse">
            <stop offset="0.17" stopColor="var(--reverseAccent)" />
            <stop offset="0.88" stopColor="var(--reverseSecAccent" />
        </linearGradient>
        <linearGradient id="paint1_linear_5_13" x1="87.2987" y1="-11.1043" x2="366.249" y2="465.399"
            gradientUnits="userSpaceOnUse">
            <stop offset="0.27" stopColor="var(--accent)" />
            <stop offset="1" stopColor="var(--secAccent)" />
        </linearGradient>
        <linearGradient id="paint2_linear_5_13" x1="146.691" y1="-44.9872" x2="425.047" y2="430.477"
            gradientUnits="userSpaceOnUse">
            <stop offset="0.27" stopColor="var(--accent)" />
            <stop offset="1" stopColor="var(--secAccent)" />
        </linearGradient>
        <linearGradient id="paint3_linear_5_13" x1="64.3518" y1="3.05669" x2="342.661" y2="478.723"
            gradientUnits="userSpaceOnUse">
            <stop offset="0.27" stopColor="var(--accent)" />
            <stop offset="1" stopColor="var(--secAccent)" />
        </linearGradient>
        <linearGradient id="paint4_linear_5_13" x1="228.054" y1="-95.1841" x2="498.348" y2="393.886"
            gradientUnits="userSpaceOnUse">
            <stop offset="0.27" stopColor="var(--accent)" />
            <stop offset="1" stopColor="var(--secAccent)" />
        </linearGradient>
        <linearGradient id="paint5_linear_5_13" x1="308.88" y1="-145.075" x2="586.559" y2="338.282"
            gradientUnits="userSpaceOnUse">
            <stop offset="0.27" stopColor="var(--accent)" />
            <stop offset="1" stopColor="var(--secAccent)" />
        </linearGradient>
        <linearGradient id="paint6_linear_5_13" x1="384.732" y1="-186.432" x2="665.28" y2="291.916"
            gradientUnits="userSpaceOnUse">
            <stop offset="0.27" stopColor="var(--accent)" />
            <stop offset="1" stopColor="var(--secAccent)" />
        </linearGradient>
        <linearGradient id="paint7_linear_5_13" x1="231.51" y1="-96.4097" x2="512.656" y2="380.849"
            gradientUnits="userSpaceOnUse">
            <stop offset="0.27" stopColor="var(--accent)" />
            <stop offset="1" stopColor="var(--secAccent)" />
        </linearGradient>
        <linearGradient id="paint8_linear_5_13" x1="321.467" y1="-146.646" x2="599.791" y2="329.005"
            gradientUnits="userSpaceOnUse">
            <stop offset="0.27" stopColor="var(--accent)" />
            <stop offset="1" stopColor="var(--secAccent)" />
        </linearGradient>
        <linearGradient id="paint9_linear_5_13" x1="435.378" y1="-212.613" x2="713.551" y2="263.306"
            gradientUnits="userSpaceOnUse">
            <stop offset="0.27" stopColor="var(--accent)" />
            <stop offset="1" stopColor="var(--secAccent)" />
        </linearGradient>
        <clipPath id="clip0_5_13">
            <rect width="707" height="386" fill="white" />
        </clipPath>
    </defs>
</svg>